<?xml version="1.0" encoding="UTF-8"?>
<svg version="1.1" xmlns="http://www.w3.org/2000/svg" width="512" height="512">
<path d="M0 0 C1.00111816 0.24145752 1.00111816 0.24145752 2.02246094 0.48779297 C27.25574809 6.61083538 49.16083158 20.24075986 67 39 C68.3303125 37.8553125 68.3303125 37.8553125 69.6875 36.6875 C70.32816406 36.14222656 70.96882812 35.59695312 71.62890625 35.03515625 C73.39917732 33.51569788 75.15466477 31.97898418 76.90234375 30.43359375 C84.15080483 24.07745791 91.53967926 18.69803444 100 14 C100.90226318 13.49557373 100.90226318 13.49557373 101.82275391 12.98095703 C112.42787218 7.13014158 123.30550266 3.1056031 135 0 C136.26199219 -0.34160156 137.52398437 -0.68320312 138.82421875 -1.03515625 C158.37664645 -5.35557964 182.67393799 -5.18554897 202 0 C202.65097656 0.17160645 203.30195313 0.34321289 203.97265625 0.52001953 C226.37053427 6.55644186 245.93043756 17.31632896 263 33 C263.87140625 33.78890625 264.7428125 34.5778125 265.640625 35.390625 C289.04699041 57.61931165 302.02981969 89.15187593 303.2421875 121.18359375 C304.07437464 160.01416942 294.87704506 200.49051428 277 235 C276.41476562 234.6596875 275.82953125 234.319375 275.2265625 233.96875 C241.12612287 214.71685015 201.71986601 205.91405046 163 215 C162.21818359 215.18272461 161.43636719 215.36544922 160.63085938 215.55371094 C141.37977073 220.26968559 122.63722322 228.7640937 107 241 C106.08734375 241.69351563 105.1746875 242.38703125 104.234375 243.1015625 C87.10479993 256.56051434 74.07771578 272.74513027 64 292 C63.09121094 293.73636719 63.09121094 293.73636719 62.1640625 295.5078125 C44.7817735 330.02783449 43.44058419 370.62745267 55.26953125 407.0703125 C59.34148262 418.99245979 64.61983821 430.0671382 71.53125 440.59375 C73 443 73 443 73 445 C71.16806822 445.10991591 69.33412536 445.1864412 67.5 445.25 C66.4790625 445.29640625 65.458125 445.3428125 64.40625 445.390625 C56.93675999 444.53403211 50.72448873 439.69168843 44.625 435.5625 C43.84970947 435.04099365 43.07441895 434.5194873 42.27563477 433.98217773 C23.89712709 421.54011529 6.01692643 408.25136445 -11 394 C-11.50450684 393.58041016 -12.00901367 393.16082031 -12.52880859 392.72851562 C-19.53920771 386.89538669 -26.37273927 380.91437089 -33.05078125 374.703125 C-35.15756439 372.74777929 -37.31970902 370.87531658 -39.5078125 369.01171875 C-45.17969384 364.06686398 -50.44587919 358.70325842 -55.75463867 353.37573242 C-57.55862085 351.56639067 -59.36788665 349.76245681 -61.17773438 347.95898438 C-66.99858662 342.14178832 -72.69310763 336.29657317 -78 330 C-78.94864142 328.91632065 -79.89911786 327.83424448 -80.8515625 326.75390625 C-88.08377975 318.46180621 -94.85695712 309.8775509 -101.44921875 301.06982422 C-102.90624988 299.12512807 -104.37418817 297.18913805 -105.84375 295.25390625 C-132.9799113 259.22397454 -153.86343871 217.27393039 -163 173 C-163.21027832 171.98341309 -163.42055664 170.96682617 -163.63720703 169.91943359 C-168.57451374 144.88889136 -171.0511743 114.65942044 -163 90 C-162.79101074 89.32888184 -162.58202148 88.65776367 -162.36669922 87.96630859 C-152.02959055 55.48378359 -128.97260375 28.11921815 -98.97851562 12.00390625 C-88.85053744 6.86493213 -77.99224546 2.8131813 -67 0 C-65.87078125 -0.2990625 -64.7415625 -0.598125 -63.578125 -0.90625 C-43.74599867 -5.27741254 -19.63835837 -5.14933601 0 0 Z " fill="#FF6347" transform="translate(167,3)"/>
<path d="M0 0 C22.47389172 18.2806214 37.04701559 43.48141312 40.53393555 72.43945312 C42.30379298 95.37281709 38.33135485 116.45835869 27.4831543 136.74023438 C25.53556389 140.25712179 25.53556389 140.25712179 24.8112793 144.03320312 C26.70880479 146.65107442 26.70880479 146.65107442 29.49951172 149.25732422 C30.00987976 149.76520981 30.5202478 150.2730954 31.04608154 150.79637146 C32.7417152 152.47829059 34.45413735 154.1420265 36.16674805 155.80664062 C37.34809613 156.97358089 38.52820007 158.14178189 39.70710754 159.31118774 C42.82030638 162.39391089 45.94730486 165.46222761 49.07824707 168.5269165 C54.07521465 173.42177228 59.05325749 178.33579753 64.02718544 183.25404739 C65.76362671 184.96640925 67.50716881 186.67127751 69.25175476 188.37533569 C70.32673316 189.43344631 71.40151646 190.49175518 72.47607422 191.55029297 C73.41174728 192.46644379 74.34742035 193.3825946 75.31144714 194.32650757 C81.71223606 201.25696764 83.19361384 206.50696738 83.08081055 215.73632812 C82.62152175 221.35429548 81.02876497 224.99864887 76.86987305 228.81445312 C71.74648792 232.81503377 68.06492688 234.19232219 61.4987793 234.28320312 C60.38889648 234.30898438 59.27901367 234.33476563 58.13549805 234.36132812 C46.35352937 233.19836059 37.11593169 220.46759571 29.35722733 212.5320549 C27.35846545 210.49035499 25.34958348 208.45872623 23.34145164 206.42624855 C19.62505841 202.66445343 15.91322341 198.89836354 12.21704102 195.11669922 C9.62269522 192.46313015 7.01643876 189.82179684 4.40177536 187.1882515 C3.41243268 186.18716288 2.42764254 185.18155375 1.44755936 184.17139816 C0.08639718 182.76943691 -1.29174288 181.38401925 -2.6706543 179.99951172 C-3.44879486 179.20725189 -4.22693542 178.41499207 -5.02865601 177.59872437 C-7.02616111 175.79806251 -7.02616111 175.79806251 -9.26528931 176.18081665 C-11.68732921 177.25416611 -14.02948732 178.46320802 -16.36499023 179.71240234 C-41.43942816 193.06230338 -69.78984494 195.29948079 -97.13012695 188.03710938 C-124.17453465 179.74884445 -148.0877934 161.05335408 -161.4152832 135.95898438 C-174.29016154 110.42242715 -178.19648713 79.5120676 -169.1887207 52.03320312 C-168.87523682 51.06519775 -168.87523682 51.06519775 -168.55541992 50.07763672 C-159.09232245 21.92935202 -138.47320985 0.27693155 -112.20239258 -12.96826172 C-107.96464961 -14.97113659 -103.64837652 -16.53694846 -99.1887207 -17.96679688 C-98.23304199 -18.27786377 -98.23304199 -18.27786377 -97.25805664 -18.59521484 C-64.53739857 -28.78517852 -26.71736602 -21.01771475 0 0 Z M-115.54418945 43.77148438 C-125.79098926 57.36339331 -132.14173231 73.81851318 -130.1887207 91.03320312 C-126.97935822 109.85260088 -118.7056976 125.52415737 -103.1887207 136.97070312 C-87.9541171 146.84676319 -71.71519385 149.9257366 -53.8605957 147.59960938 C-37.18318892 144.00995364 -23.64732884 134.03916991 -13.7121582 120.39648438 C-4.29394127 105.78617349 -0.65020219 89.22267614 -3.8449707 72.07226562 C-7.98571166 54.7596849 -17.65781535 40.19350517 -32.6730957 30.49023438 C-60.4113593 14.42443885 -94.37678545 19.16393843 -115.54418945 43.77148438 Z " fill="#FF6347" transform="translate(429.188720703125,277.966796875)"/>
</svg>
