<?xml version="1.0" encoding="UTF-8"?>
<svg version="1.1" xmlns="http://www.w3.org/2000/svg" width="512" height="512">
<path d="M0 0 C0.71402481 -0.00817749 1.42804962 -0.01635498 2.16371155 -0.02478027 C4.53125162 -0.04963192 6.89873175 -0.06614971 9.26635742 -0.08056641 C10.07469213 -0.08589008 10.88302685 -0.09121376 11.71585655 -0.09669876 C15.99448066 -0.12342954 20.2730756 -0.14280451 24.55175781 -0.15722656 C28.97054386 -0.17387327 33.3885839 -0.21865059 37.8070879 -0.26959801 C41.20518345 -0.30325896 44.60310168 -0.31480266 48.0013485 -0.32045364 C49.63005969 -0.32716953 51.25875909 -0.34240055 52.88730812 -0.36634445 C55.16897941 -0.39797642 57.44863564 -0.39803702 59.73046875 -0.390625 C61.67666862 -0.40275528 61.67666862 -0.40275528 63.66218567 -0.41513062 C67.92449032 0.34771346 69.36755907 1.88191773 72.05932617 5.19287109 C73.46844713 8.01111301 73.1711617 10.36538391 73.15698242 13.51318359 C73.15375977 14.77001953 73.15053711 16.02685547 73.1472168 17.32177734 C73.13883789 18.64048828 73.13045898 19.95919922 73.12182617 21.31787109 C73.11681107 22.65771321 73.11224818 23.9975571 73.1081543 25.33740234 C73.09633703 28.62260316 73.07986235 31.90771507 73.05932617 35.19287109 C74.21513184 35.45789429 74.21513184 35.45789429 75.39428711 35.72827148 C81.65330021 37.21830476 87.47527372 38.92425913 93.30932617 41.63037109 C93.98898438 41.93386475 94.66864258 42.2373584 95.36889648 42.55004883 C98.93058202 44.15434621 102.3831041 45.87606272 105.80932617 47.75537109 C108.82489679 49.53498659 108.82489679 49.53498659 111.05761719 48.47973633 C113.11041874 47.16002454 114.65006562 45.8004512 116.33666992 44.04052734 C116.93286133 43.42886719 117.52905273 42.81720703 118.14331055 42.18701172 C119.37516364 40.90323648 120.60693499 39.6193828 121.83862305 38.33544922 C126.12647279 33.93658718 129.55590391 30.70204172 135.74682617 29.44287109 C139.87637766 29.60281512 141.76708611 31.37433987 144.7253418 34.14453125 C145.60319336 34.96318665 146.48104492 35.78184204 147.38549805 36.62530518 C151.53894933 40.61369166 155.6488491 44.63950643 159.71557617 48.71630859 C160.58452515 49.58430084 161.45347412 50.45229309 162.34875488 51.34658813 C164.16496466 53.16212312 165.97993525 54.97889855 167.79370117 56.796875 C170.57641297 59.58499107 173.36448565 62.36766731 176.15307617 65.14990234 C177.92423063 66.92171681 179.69507529 68.69384104 181.46557617 70.46630859 C182.29883423 71.29754242 183.13209229 72.12877625 183.99060059 72.98519897 C185.14320374 74.14253036 185.14320374 74.14253036 186.3190918 75.32324219 C186.99508423 76.00003021 187.67107666 76.67681824 188.36755371 77.37411499 C191.04492258 80.2524459 192.02410041 81.93308113 192.55932617 85.88037109 C192.16987011 96.11750195 179.90335869 104.5316169 173.05932617 111.19287109 C174.4570939 115.71668095 176.29263965 119.89027345 178.37182617 124.13037109 C187.05932617 142.25574849 187.05932617 142.25574849 187.05932617 149.19287109 C187.8761084 149.17192383 188.69289063 149.15097656 189.53442383 149.12939453 C193.25093172 149.0460198 196.9672425 148.99414121 200.68432617 148.94287109 C201.96952148 148.90935547 203.2547168 148.87583984 204.57885742 148.84130859 C216.46854191 148.71809943 216.46854191 148.71809943 221.05932617 153.19287109 C222.26323066 155.60068007 222.13596889 156.9842976 222.05834961 159.66748047 C222.03633484 160.59604858 222.01432007 161.5246167 221.99163818 162.48132324 C221.96756897 163.48957153 221.94349976 164.49781982 221.91870117 165.53662109 C221.88720826 168.79181412 221.86729962 172.04696022 221.84790039 175.30224609 C221.8223432 177.54869036 221.77540707 179.79500089 221.70629883 182.04052734 C220.85812335 194.029562 220.85812335 194.029562 224.30487061 205.14785767 C227.69692375 208.73686917 231.74749497 210.83327663 236.05932617 213.19287109 C259.54081206 232.24939076 273.89872104 263.79861212 278.05932617 293.19287109 C278.27173346 297.74932927 278.2873933 302.30503241 278.29956055 306.86572266 C278.3091461 309.02726552 278.34015855 311.18780564 278.37182617 313.34912109 C278.47164623 326.34931427 276.65798813 338.86546723 272.37182617 351.19287109 C272.11908936 351.93287354 271.86635254 352.67287598 271.60595703 353.43530273 C264.25660419 374.18004953 250.77144399 397.71812588 232.05932617 410.19287109 C233.39112581 413.14776184 234.84493138 415.22798707 237.13366699 417.51445007 C237.76458755 418.14956512 238.39550812 418.78468018 239.04554749 419.43904114 C239.73652023 420.12439438 240.42749298 420.80974762 241.1394043 421.51586914 C242.23230019 422.61161255 242.23230019 422.61161255 243.34727478 423.72949219 C245.75684956 426.14277174 248.17354949 428.54877558 250.59057617 430.95458984 C252.26480944 432.62763118 253.93867341 434.30104215 255.61218262 435.97480774 C259.11963587 439.48069672 262.63042474 442.98319899 266.14379883 446.4831543 C270.65514528 450.9774914 275.15986122 455.47840295 279.66233063 459.98163128 C283.11745803 463.43648727 286.57518172 466.88873463 290.03379822 470.34009743 C291.69624497 471.99935459 293.35808021 473.65922467 295.01930237 475.31970787 C297.33677668 477.63502281 299.65750861 479.94701972 301.97924805 482.25805664 C302.67022079 482.94948257 303.36119354 483.64090851 304.07310486 484.35328674 C304.70402542 484.97994232 305.33494598 485.6065979 305.98498535 486.25224304 C306.8079372 487.07268113 306.8079372 487.07268113 307.64751434 487.90969372 C310.89366214 490.86007515 314.31273063 490.57653445 318.50854492 490.55224609 C322.61801121 489.97327075 324.27282195 488.1937218 327.05932617 485.19287109 C328.22939473 482.85273398 328.39769023 481.17829157 328.55932617 478.56787109 C328.63151367 477.75060547 328.70370117 476.93333984 328.77807617 476.09130859 C326.46414553 466.76013177 314.54482611 458.64981361 307.7277832 452.03271484 C306.19079937 450.53825248 304.663594 449.03432957 303.13745117 447.52880859 C301.78248535 446.20695557 301.78248535 446.20695557 300.40014648 444.85839844 C296.98166281 440.96571959 295.05932617 437.85975725 295.05932617 432.63037109 C296.27263276 428.4596297 297.60639452 426.80175279 301.05932617 424.19287109 C304.59708874 422.98852639 306.30330033 422.89621129 309.78759766 424.26342773 C313.92993959 426.70629978 317.06541066 429.69363391 320.46948242 433.06396484 C321.15940781 433.74153336 321.84933319 434.41910187 322.56016541 435.11720276 C324.01385054 436.55137313 325.46344852 437.98969667 326.90917969 439.43188477 C329.10118167 441.60985871 331.31838278 443.75972883 333.5378418 445.90966797 C342.21459107 454.44819264 349.37132176 461.8681383 350.68823242 474.51318359 C350.55015272 482.42433849 350.02540209 489.16091413 346.05932617 496.19287109 C345.70870117 496.83611328 345.35807617 497.47935547 344.99682617 498.14208984 C341.79560418 503.26626811 337.22066176 506.21056091 332.05932617 509.19287109 C331.45886475 509.54124023 330.85840332 509.88960938 330.23974609 510.24853516 C326.04350879 512.06591797 321.44184803 511.60469534 316.93432617 511.63037109 C315.93916992 511.66324219 314.94401367 511.69611328 313.91870117 511.72998047 C312.9312793 511.73707031 311.94385742 511.74416016 310.92651367 511.75146484 C310.0407666 511.76491943 309.15501953 511.77837402 308.24243164 511.79223633 C299.19715497 510.08904916 292.7784288 504.62287419 286.56787109 498.17382812 C285.78440308 497.38145248 285.00093506 496.58907684 284.19372559 495.77268982 C282.50819115 494.06491706 280.82843214 492.35142811 279.15398216 490.6327858 C276.50509825 487.91508552 273.84017128 485.21407535 271.17048645 482.51681519 C264.55130961 475.82304686 257.95790427 469.10413454 251.36828613 462.38128662 C245.78293344 456.68385933 240.18556983 450.99879555 234.57106972 445.33004379 C231.94158529 442.66533287 229.33031699 439.98359386 226.71903992 437.30105591 C225.11488269 435.6783097 223.5098532 434.05642515 221.90380859 432.43554688 C221.1800856 431.682397 220.45636261 430.92924713 219.71070862 430.15327454 C219.03674042 429.48032852 218.36277222 428.80738251 217.66838074 428.11404419 C217.08865603 427.52229464 216.50893133 426.93054508 215.91163921 426.32086372 C214.06005488 424.9416359 214.06005488 424.9416359 211.54567432 425.41947746 C208.16329892 426.47158579 205.01196711 427.94827907 201.80932617 429.44287109 C196.07635195 432.02776878 190.34232193 434.22545853 184.30932617 436.00537109 C183.33817871 436.29686035 183.33817871 436.29686035 182.34741211 436.59423828 C171.09733466 439.78372212 159.95044903 440.56915526 148.30932617 440.50537109 C147.60144958 440.50321594 146.893573 440.50106079 146.16424561 440.49884033 C135.84764995 440.44841025 126.04950579 440.08936737 116.05932617 437.19287109 C115.35775391 436.99419434 114.65618164 436.79551758 113.93334961 436.59082031 C89.08420591 429.413493 66.20977088 415.75631331 49.05932617 396.19287109 C48.45036499 394.83669678 48.45036499 394.83669678 47.82910156 393.453125 C45.9164798 389.74051198 44.43379733 387.70507406 41.05932617 385.19287109 C33.26386656 383.25943256 24.82875939 384.06278544 16.87182617 384.31787109 C13.55296836 384.39199249 10.2354964 384.45010053 6.91593933 384.47994995 C4.85645877 384.5016811 2.79704019 384.55048025 0.7389679 384.62966919 C-6.22089778 384.74776328 -6.22089778 384.74776328 -10.04736328 381.79785156 C-12.94540348 377.8104771 -13.06048074 375.79000481 -13.03833008 370.87255859 C-13.03510742 369.61572266 -13.03188477 368.35888672 -13.02856445 367.06396484 C-13.02018555 365.74525391 -13.01180664 364.42654297 -13.00317383 363.06787109 C-12.99815872 361.72802898 -12.99359583 360.38818509 -12.98950195 359.04833984 C-12.97768468 355.76313903 -12.96121 352.47802712 -12.94067383 349.19287109 C-13.53855713 349.09997803 -14.13644043 349.00708496 -14.75244141 348.91137695 C-21.51571847 347.72749226 -27.38435935 345.56622285 -33.62817383 342.75537109 C-34.52600586 342.36027344 -35.42383789 341.96517578 -36.34887695 341.55810547 C-38.08608556 340.79322461 -39.8216891 340.02468458 -41.55541992 339.25195312 C-44.67122032 337.86849948 -47.80368779 336.52748485 -50.94067383 335.19287109 C-51.39917725 335.66184814 -51.85768066 336.1308252 -52.33007812 336.61401367 C-54.42409887 338.74978272 -56.52602216 340.87760574 -58.62817383 343.00537109 C-59.3494043 343.74335938 -60.07063477 344.48134766 -60.8137207 345.24169922 C-61.87236328 346.31000977 -61.87236328 346.31000977 -62.95239258 347.39990234 C-63.596521 348.05450439 -64.24064941 348.70910645 -64.90429688 349.38354492 C-68.75801574 352.80758407 -72.39903957 355.06794055 -77.7232666 354.86172485 C-80.73125055 353.9544033 -82.31824862 352.3841694 -84.60668945 350.24121094 C-85.48454102 349.42255554 -86.36239258 348.60390015 -87.2668457 347.76043701 C-91.42029699 343.77205052 -95.53019676 339.74623575 -99.59692383 335.66943359 C-100.4658728 334.80144135 -101.33482178 333.9334491 -102.23010254 333.03915405 C-104.04631231 331.22361907 -105.8612829 329.40684364 -107.67504883 327.58886719 C-110.45776062 324.80075111 -113.24583331 322.01807488 -116.03442383 319.23583984 C-117.80557829 317.46402537 -119.57642294 315.69190115 -121.34692383 313.91943359 C-122.18018188 313.08819977 -123.01343994 312.25696594 -123.87194824 311.40054321 C-124.64035034 310.62898895 -125.40875244 309.85743469 -126.20043945 309.0625 C-126.87643188 308.38571198 -127.55242432 307.70892395 -128.24890137 307.0116272 C-130.92627024 304.13329629 -131.90544807 302.45266105 -132.44067383 298.50537109 C-132.05121776 288.26824023 -119.78470634 279.85412529 -112.94067383 273.19287109 C-113.22265625 272.55897461 -113.50463867 271.92507813 -113.79516602 271.27197266 C-126.94067383 241.63267453 -126.94067383 241.63267453 -126.94067383 235.19287109 C-127.75745605 235.21381836 -128.57423828 235.23476562 -129.41577148 235.25634766 C-133.13227937 235.33972239 -136.84859015 235.39160097 -140.56567383 235.44287109 C-141.85086914 235.47638672 -143.13606445 235.50990234 -144.46020508 235.54443359 C-145.70415039 235.55732422 -146.9480957 235.57021484 -148.22973633 235.58349609 C-149.3713623 235.60444336 -150.51298828 235.62539062 -151.68920898 235.64697266 C-155.8247898 235.06939492 -157.77401723 233.91238837 -160.94067383 231.19287109 C-161.56447707 228.39662548 -161.76499674 226.44034233 -161.71704102 223.64208984 C-161.72755493 222.8871524 -161.73806885 222.13221497 -161.74890137 221.35440063 C-161.77528177 218.86221216 -161.75784042 216.37258486 -161.73754883 213.88037109 C-161.74159108 212.14688629 -161.7474146 210.4134048 -161.75494385 208.67993164 C-161.76378757 205.04817297 -161.75094069 201.41730016 -161.72290039 197.78564453 C-161.68871271 193.13103228 -161.70839713 188.47849545 -161.74433517 183.82395935 C-161.76602073 180.24475474 -161.75911456 176.66604196 -161.74356842 173.08682251 C-161.73956693 171.37081659 -161.74447445 169.65476596 -161.75844574 167.93881226 C-161.77369569 165.53922361 -161.75045629 163.14299096 -161.71704102 160.74365234 C-161.7291864 160.03496002 -161.74133179 159.3262677 -161.75384521 158.59609985 C-161.70257568 156.6081543 -161.70257568 156.6081543 -160.94067383 153.19287109 C-156.69592244 149.54748853 -153.77027539 148.70058483 -148.22973633 148.80224609 C-146.98579102 148.81513672 -145.7418457 148.82802734 -144.46020508 148.84130859 C-142.53241211 148.89158203 -142.53241211 148.89158203 -140.56567383 148.94287109 C-139.25727539 148.96091797 -137.94887695 148.97896484 -136.60083008 148.99755859 C-133.38002694 149.04457762 -130.16072908 149.11028929 -126.94067383 149.19287109 C-126.6905957 147.91669922 -126.44051758 146.64052734 -126.18286133 145.32568359 C-124.9986756 140.00829423 -123.12592878 135.0997949 -121.06567383 130.06787109 C-120.72665039 129.21322266 -120.38762695 128.35857422 -120.03833008 127.47802734 C-118.45129141 123.54965405 -116.83018236 119.90683102 -114.55786133 116.32568359 C-114.02418945 115.29185547 -113.49051758 114.25802734 -112.94067383 113.19287109 C-114.02693306 110.11167316 -115.76026489 108.15109607 -118.09301758 105.91552734 C-118.70467773 105.31933594 -119.31633789 104.72314453 -119.9465332 104.10888672 C-121.23030845 102.87703363 -122.51416213 101.64526228 -123.7980957 100.41357422 C-128.19695774 96.12572448 -131.4315032 92.69629335 -132.69067383 86.50537109 C-132.5307298 82.3758196 -130.75920506 80.48511116 -127.98901367 77.52685547 C-127.17035828 76.64900391 -126.35170288 75.77115234 -125.50823975 74.86669922 C-121.51985326 70.71324793 -117.49403849 66.60334817 -113.41723633 62.53662109 C-112.54924408 61.66767212 -111.68125183 60.79872314 -110.78695679 59.90344238 C-108.9714218 58.08723261 -107.15464638 56.27226202 -105.33666992 54.45849609 C-102.54855385 51.6757843 -99.76587761 48.88771161 -96.98364258 46.09912109 C-95.21182811 44.32796664 -93.43970389 42.55712198 -91.66723633 40.78662109 C-90.42038559 39.53673401 -90.42038559 39.53673401 -89.14834595 38.26159668 C-87.99101456 37.10899353 -87.99101456 37.10899353 -86.81030273 35.93310547 C-86.13351471 35.25711304 -85.45672668 34.58112061 -84.75942993 33.88464355 C-81.88109902 31.20727469 -80.20046379 30.22809685 -76.25317383 29.69287109 C-66.01604297 30.08232716 -57.60192802 42.34883858 -50.94067383 49.19287109 C-46.92608005 47.94858179 -43.37805229 46.44828745 -39.69067383 44.44287109 C-32.14976745 40.58694164 -21.48396929 35.19287109 -12.94067383 35.19287109 C-12.96162109 34.37608887 -12.98256836 33.55930664 -13.00415039 32.71777344 C-13.08752512 29.00126555 -13.13940371 25.28495477 -13.19067383 21.56787109 C-13.22418945 20.28267578 -13.25770508 18.99748047 -13.29223633 17.67333984 C-13.41544549 5.78365536 -13.41544549 5.78365536 -8.94067383 1.19287109 C-5.98098335 -0.28697415 -3.30325095 0.03280197 0 0 Z M8.05932617 20.19287109 C7.84966234 28.52394981 7.84966234 28.52394981 7.67138672 36.85571289 C7.62171753 38.42059448 7.62171753 38.42059448 7.57104492 40.01708984 C7.54486084 41.08016357 7.51867676 42.1432373 7.49169922 43.23852539 C6.98735268 46.68465607 6.27143631 48.49827228 4.05932617 51.19287109 C1.26635742 52.51977539 1.26635742 52.51977539 -2.12817383 53.51708984 C-3.37614746 53.90123047 -4.62412109 54.28537109 -5.90991211 54.68115234 C-6.56864319 54.87660645 -7.22737427 55.07206055 -7.90606689 55.2734375 C-20.42868397 59.00899785 -31.92260127 63.53806412 -43.21850586 70.20654297 C-47.72527825 72.78768281 -50.60121553 73.90479887 -55.94067383 73.19287109 C-63.33461708 69.35491326 -69.20468048 62.11865833 -74.94067383 56.19287109 C-79.23134929 57.8452376 -82.08362912 61.0833918 -85.23754883 64.29443359 C-86.12799896 65.18912857 -86.12799896 65.18912857 -87.03643799 66.10189819 C-88.9259401 68.00256919 -90.80835774 69.91008584 -92.69067383 71.81787109 C-93.97276448 73.10999578 -95.25531144 74.40166785 -96.53833008 75.69287109 C-99.67775815 78.85431588 -102.81085183 82.02191719 -105.94067383 85.19287109 C-103.75809655 89.98350307 -100.12470667 93.11046857 -96.37231445 96.68310547 C-92.41652869 100.52182729 -89.41636087 103.65587351 -88.36645508 109.25537109 C-89.24209072 115.25972981 -92.19587318 119.94016657 -95.12817383 125.19287109 C-100.75877088 135.63081224 -104.84121381 145.42075243 -107.93676758 156.88037109 C-108.26805664 158.05599609 -108.5993457 159.23162109 -108.94067383 160.44287109 C-109.20879883 161.47927734 -109.47692383 162.51568359 -109.75317383 163.58349609 C-111.27874544 166.93573897 -112.65536749 167.59343438 -115.94067383 169.19287109 C-118.89501953 169.62524414 -118.89501953 169.62524414 -122.11645508 169.70458984 C-123.15970947 169.73770264 -124.20296387 169.77081543 -125.27783203 169.80493164 C-127.24562622 169.84227417 -127.24562622 169.84227417 -129.25317383 169.88037109 C-133.44004883 169.98349609 -137.62692383 170.08662109 -141.94067383 170.19287109 C-141.94067383 184.71287109 -141.94067383 199.23287109 -141.94067383 214.19287109 C-133.60959512 214.40253492 -133.60959512 214.40253492 -125.27783203 214.58081055 C-123.71295044 214.63047974 -123.71295044 214.63047974 -122.11645508 214.68115234 C-121.05338135 214.70733643 -119.99030762 214.73352051 -118.89501953 214.76049805 C-115.55674083 215.24906028 -113.635436 216.18759967 -110.94067383 218.19287109 C-109.78833008 220.73193359 -109.78833008 220.73193359 -109.00317383 223.81787109 C-108.51010742 225.57357422 -108.51010742 225.57357422 -108.00708008 227.36474609 C-107.47920898 229.25966797 -107.47920898 229.25966797 -106.94067383 231.19287109 C-103.56087702 242.60151737 -98.81588201 252.79662647 -92.81567383 263.08691406 C-89.88819137 268.33382106 -88.07817731 272.21806785 -89.26757812 278.25439453 C-90.30329945 281.23721183 -91.84584359 283.09804085 -94.06567383 285.31787109 C-95.27416992 286.55537109 -95.27416992 286.55537109 -96.50708008 287.81787109 C-97.71170898 288.99349609 -97.71170898 288.99349609 -98.94067383 290.19287109 C-99.65094727 290.91474609 -100.3612207 291.63662109 -101.09301758 292.38037109 C-102.69243407 294.00268312 -104.30636412 295.60585652 -105.94067383 297.19287109 C-104.28830732 301.48354656 -101.05015313 304.33582639 -97.83911133 307.48974609 C-96.94441635 308.38019623 -96.94441635 308.38019623 -96.03164673 309.28863525 C-94.13097573 311.17813736 -92.22345908 313.06055501 -90.31567383 314.94287109 C-89.02354915 316.22496174 -87.73187707 317.50750871 -86.44067383 318.79052734 C-83.27922904 321.92995541 -80.11162773 325.0630491 -76.94067383 328.19287109 C-72.16535371 326.0198896 -69.0678002 322.39319146 -65.53833008 318.62451172 C-61.60711385 314.5475087 -57.98452823 311.44654742 -52.09912109 310.95605469 C-48.52336507 311.22416038 -46.53260929 312.12305322 -43.41333008 313.86083984 C-41.86500488 314.70304077 -41.86500488 314.70304077 -40.28540039 315.56225586 C-39.20226562 316.16223389 -38.11913086 316.76221191 -37.00317383 317.38037109 C-26.54638989 322.99836794 -16.72236746 327.09082461 -5.25317383 330.18896484 C-4.07754883 330.52025391 -2.90192383 330.85154297 -1.69067383 331.19287109 C-0.65426758 331.46099609 0.38213867 331.72912109 1.44995117 332.00537109 C4.80219405 333.5309427 5.45988946 334.90756475 7.05932617 338.19287109 C7.49169922 341.1472168 7.49169922 341.1472168 7.57104492 344.36865234 C7.60649414 345.52558594 7.64194336 346.68251953 7.6784668 347.87451172 C7.70102539 349.07269531 7.72358398 350.27087891 7.74682617 351.50537109 C7.78098633 352.72289062 7.81514648 353.94041016 7.8503418 355.19482422 C7.93266806 358.19385227 7.99767755 361.19334674 8.05932617 364.19287109 C14.98932617 364.19287109 21.91932617 364.19287109 29.05932617 364.19287109 C28.06932617 361.22287109 27.07932617 358.25287109 26.05932617 355.19287109 C25.18697596 352.42568305 24.33014888 349.65898971 23.49682617 346.88037109 C23.18455078 345.87586914 23.18455078 345.87586914 22.8659668 344.85107422 C19.5749563 333.84321154 18.72098395 322.88529401 18.43432617 311.44287109 C18.37631836 309.52087891 18.37631836 309.52087891 18.31713867 307.56005859 C18.22393682 304.43779639 18.13812928 301.31552417 18.05932617 298.19287109 C17.07875244 297.96736572 17.07875244 297.96736572 16.07836914 297.73730469 C-7.90626147 292.15762009 -27.05739547 284.55113577 -44.94067383 267.19287109 C-45.55040039 266.64501953 -46.16012695 266.09716797 -46.78833008 265.53271484 C-60.26487759 253.03851248 -68.80922852 234.83348677 -72.94067383 217.19287109 C-73.2597168 215.95730469 -73.2597168 215.95730469 -73.58520508 214.69677734 C-79.78370585 188.2528136 -73.88484304 160.40084023 -60.72583008 137.04443359 C-45.82401149 113.24065335 -22.37740629 95.80834317 5.05932617 89.19287109 C13.33113195 87.44806066 21.3667003 86.83615564 29.80932617 86.88037109 C31.51548096 86.88883057 31.51548096 86.88883057 33.25610352 86.89746094 C60.50795309 87.28859875 84.14995671 97.86495509 104.05932617 116.19287109 C104.71030273 116.75103516 105.3612793 117.30919922 106.03198242 117.88427734 C121.83324274 132.19132865 130.06559444 153.89453128 134.66870117 174.09130859 C134.93134766 175.24034668 135.19399414 176.38938477 135.46459961 177.57324219 C135.66085937 178.43771973 135.85711914 179.30219727 136.05932617 180.19287109 C136.82374023 180.20745361 137.5881543 180.22203613 138.37573242 180.23706055 C158.17665504 180.6585152 175.55518369 182.28141168 194.29370117 188.88818359 C198.06426646 190.2567476 198.06426646 190.2567476 202.05932617 191.19287109 C202.05932617 184.26287109 202.05932617 177.33287109 202.05932617 170.19287109 C200.24045898 170.15548828 198.4215918 170.11810547 196.54760742 170.07958984 C194.15565977 170.01392854 191.76373361 169.94748125 189.37182617 169.88037109 C187.57455078 169.8465332 187.57455078 169.8465332 185.7409668 169.81201172 C184.5840332 169.7765625 183.42709961 169.74111328 182.23510742 169.70458984 C181.17203369 169.67840576 180.10895996 169.65222168 179.01367188 169.62524414 C175.66226166 169.13476009 173.7506358 168.22931134 171.05932617 166.19287109 C169.75854492 163.10302734 169.75854492 163.10302734 168.74682617 159.25537109 C164.71364281 145.02815633 159.31233965 131.49577585 151.62573242 118.84521484 C149.05906224 114.49915735 148.4845591 111.20155554 149.05932617 106.19287109 C152.87366911 98.79867351 160.14162619 92.9210362 166.05932617 87.19287109 C164.40695966 82.90219563 161.16880547 80.0499158 157.95776367 76.89599609 C157.36130035 76.30236267 156.76483704 75.70872925 156.15029907 75.09710693 C154.24962808 73.20760483 152.34211143 71.32518718 150.43432617 69.44287109 C149.14220149 68.16078045 147.85052941 66.87823348 146.55932617 65.59521484 C143.39788139 62.45578677 140.23028008 59.32269309 137.05932617 56.19287109 C132.26869419 58.37544837 129.1417287 62.00883825 125.5690918 65.76123047 C121.77727781 69.66867792 118.46509384 72.75983291 112.93432617 73.75537109 C108.26095491 73.07697849 105.25131204 71.320811 101.19995117 68.97412109 C89.56584063 62.37567034 77.36795236 57.90140112 64.55541992 54.17333984 C63.48420898 53.84978516 62.41299805 53.52623047 61.30932617 53.19287109 C59.89393555 52.79068359 59.89393555 52.79068359 58.44995117 52.38037109 C55.31266442 50.82198029 54.59643593 49.3189338 53.05932617 46.19287109 C52.62695312 43.23852539 52.62695312 43.23852539 52.54760742 40.01708984 C52.51449463 38.97383545 52.48138184 37.93058105 52.44726562 36.85571289 C52.4099231 34.8879187 52.4099231 34.8879187 52.37182617 32.88037109 C52.26870117 28.69349609 52.16557617 24.50662109 52.05932617 20.19287109 C37.53932617 20.19287109 23.01932617 20.19287109 8.05932617 20.19287109 Z M-35.56567383 136.94287109 C-49.92748459 154.10945902 -56.91639396 175.87101529 -55.72973633 198.15380859 C-53.7244329 217.41228868 -46.97174172 234.61896274 -33.94067383 249.19287109 C-32.83272461 250.44197266 -32.83272461 250.44197266 -31.70239258 251.71630859 C-18.86780314 265.37012714 -1.4535413 274.2898905 17.05932617 277.19287109 C18.72549327 277.23367519 20.39356778 277.24788697 22.05932617 277.19287109 C22.44604492 276.07009766 22.83276367 274.94732422 23.23120117 273.79052734 C27.96201043 260.16245012 27.96201043 260.16245012 30.43432617 254.75537109 C32.19766123 251.54220037 32.19766123 251.54220037 32.05932617 249.19287109 C31.03194336 249.09490234 30.00456055 248.99693359 28.94604492 248.89599609 C12.97985025 247.23405862 -1.74350062 242.36776005 -12.94067383 230.19287109 C-24.00804712 215.27794471 -27.42855128 200.48632442 -25.94067383 182.19287109 C-23.31731848 167.67498412 -15.82169206 155.11599266 -3.87817383 146.56787109 C9.77719357 137.17364117 25.04669492 134.36924819 41.34838867 136.65380859 C56.42705027 140.03556647 68.37305298 148.37141581 77.52807617 160.74365234 C83.98957505 171.07875386 86.112129 182.25320147 87.05932617 194.19287109 C93.6380923 192.07826769 100.10026597 189.7085656 106.5612793 187.26269531 C109.38216791 186.19498216 112.19751531 185.14680805 115.05932617 184.19287109 C112.85880066 166.24121561 106.81997909 151.07734395 95.05932617 137.19287109 C94.53983398 136.52900391 94.0203418 135.86513672 93.48510742 135.18115234 C80.92055195 119.69602223 60.63414236 109.71263289 41.05932617 107.19287109 C10.49974878 105.37523619 -14.39093332 114.19077971 -35.56567383 136.94287109 Z M2.05932617 169.19287109 C-5.2033606 178.76231694 -6.97777123 187.2071758 -5.94067383 199.19287109 C-3.71191159 209.56262114 1.77996216 217.28950478 10.55932617 223.13037109 C19.7901284 228.52645575 29.04499268 229.54084768 39.61401367 227.76318359 C48.48156483 225.20705675 56.09617708 219.54754754 60.80932617 211.63427734 C65.57388912 202.32849034 67.83550535 193.65681506 65.36401367 183.27099609 C62.14222502 173.47026088 56.00050577 164.8752257 46.75463867 159.97021484 C30.76578104 152.65727832 13.91829326 155.85153312 2.05932617 169.19287109 Z M116.05932617 205.19287109 C114.91979492 205.55509766 113.78026367 205.91732422 112.60620117 206.29052734 C82.70212281 216.94475816 60.54749831 238.5476589 47.00952148 267.04052734 C36.82605513 290.10770088 35.41963893 318.21291607 43.05932617 342.19287109 C43.60266602 343.90216797 43.60266602 343.90216797 44.15698242 345.64599609 C54.81121324 375.55007446 76.41411398 397.70469896 104.90698242 411.24267578 C127.97415596 421.42614214 156.07937115 422.83255833 180.05932617 415.19287109 C181.19885742 414.83064453 182.33838867 414.46841797 183.51245117 414.09521484 C213.41652953 403.44098403 235.57115403 381.83808329 249.10913086 353.34521484 C259.95501584 328.77755759 261.02836008 298.09614942 251.51635742 272.97021484 C249.88862576 268.94492347 248.03022613 265.05995452 246.05932617 261.19287109 C245.75510742 260.58604492 245.45088867 259.97921875 245.13745117 259.35400391 C240.29971466 249.85789611 234.20814165 242.03490504 227.05932617 234.19287109 C226.47666992 233.52771484 225.89401367 232.86255859 225.29370117 232.17724609 C208.95321752 214.51631932 182.67840606 202.61395813 158.84643555 200.97143555 C144.18204905 200.47073685 130.11131566 200.71609853 116.05932617 205.19287109 Z " fill="#4E6766" transform="translate(160.940673828125,0.80712890625)"/>
<path d="M0 0 C1.55460937 0.5259375 1.55460937 0.5259375 3.140625 1.0625 C25.53959683 9.50609148 42.20490337 26.58661488 52.2734375 48.01953125 C61.21307656 67.99570196 62.23837853 92.33252446 55 113 C54.649375 114.03640625 54.29875 115.0728125 53.9375 116.140625 C45.49390852 138.53959683 28.41338512 155.20490337 6.98046875 165.2734375 C-12.98163864 174.20678301 -37.34759475 175.25560965 -58 168 C-59.07121094 167.62617188 -60.14242187 167.25234375 -61.24609375 166.8671875 C-83.06936442 158.47148337 -99.82445591 141.80434182 -110 121 C-118.72248883 100.27021739 -120.52116265 76.40827669 -113 55 C-112.43925781 53.39318359 -112.43925781 53.39318359 -111.8671875 51.75390625 C-103.47148337 29.93063558 -86.80434182 13.17554409 -66 3 C-45.25594738 -5.72849323 -21.42374896 -7.50324848 0 0 Z M-51 20 C-51.91652344 20.36351562 -52.83304688 20.72703125 -53.77734375 21.1015625 C-71.47009093 28.62522728 -84.44719955 41.22363697 -92 59 C-97.43529201 73.25911335 -98.90207905 91.66975206 -93 106 C-92.63648438 106.91652344 -92.27296875 107.83304687 -91.8984375 108.77734375 C-84.37477272 126.47009093 -71.77636303 139.44719955 -54 147 C-39.57865266 152.4971324 -21.53335456 153.70953215 -7 148 C-6.18015625 147.73316406 -5.3603125 147.46632813 -4.515625 147.19140625 C2.57426006 144.71435013 8.14039886 140.62076572 14 136 C14.6496875 135.51660156 15.299375 135.03320312 15.96875 134.53515625 C27.88134226 125.19460096 35.38148924 109.70095255 38 95 C38.73199525 84.04003473 39.23984032 72.2943323 35 62 C34.63648438 61.08347656 34.27296875 60.16695312 33.8984375 59.22265625 C26.37477272 41.52990907 13.77636303 28.55280045 -4 21 C-18.25911335 15.56470799 -36.66975206 14.09792095 -51 20 Z " fill="#4E6766" transform="translate(338,227)"/>
<path d="M0 0 C11.31489246 2.34151374 20.89046999 9.48486976 27.5703125 18.76953125 C32.3933671 26.29402353 35.28226455 33.51318639 35.4375 42.5625 C35.47746094 43.84253906 35.51742187 45.12257813 35.55859375 46.44140625 C34.85751901 50.90769359 33.59099169 52.32564294 30 55 C27.5 55.6640625 27.5 55.6640625 25 55.625 C24.175 55.63789063 23.35 55.65078125 22.5 55.6640625 C18.82870096 54.68887369 17.33352651 52.95393236 15 50 C14.06640625 46.765625 14.06640625 46.765625 13.5625 43.25 C12.13246743 35.74625766 10.17401351 29.97306927 3.7734375 25.4140625 C-0.67649267 22.9701326 -4.8041656 21.74922523 -9.8125 21 C-13.3882511 20.43274203 -15.04188135 19.97372151 -18.1875 18 C-20.40887581 14.32324005 -20.59803507 11.7257554 -20.6640625 7.5 C-18.01504961 -2.4727544 -8.12099711 -0.86481207 0 0 Z " fill="#4E6766" transform="translate(319,266)"/>
<path d="M0 0 C3.67552256 1.99756661 4.77375004 3.50036467 6.5 7.3125 C7.12753814 11.94059379 6.43771726 14.03870946 4 18 C0.59254913 20.47814609 -1.35056907 21 -5.5625 21 C-9.82964117 19.75864984 -11.47631975 18.67080764 -14 15 C-14.96393453 10.33252754 -14.65953759 7.05526014 -12.125 3 C-8.44360365 -0.46484362 -4.89791823 -0.65806963 0 0 Z " fill="#4E6766" transform="translate(443,397)"/>
</svg>
